<svg aria-hidden="true" style="position: absolute; width: 0; height: 0; overflow: hidden;" version="1.1" xmlns="http://www.w3.org/2000/svg" xmlns:xlink="http://www.w3.org/1999/xlink">
<defs>
<symbol id="icon-arroow-right-1" viewBox="0 0 32 32">
<path fill="#fefefe" style="fill: var(--color1, #fefefe)" d="M31.449 17.331c0.735-0.735 0.735-1.927 0-2.662l-11.979-11.979c-0.735-0.735-1.927-0.735-2.662 0s-0.735 1.927 0 2.662l10.648 10.648-10.648 10.648c-0.735 0.735-0.735 1.927 0 2.662s1.927 0.735 2.662 0l11.979-11.979zM0 17.882h30.118v-3.765h-30.118v3.765z"></path>
</symbol>
<symbol id="icon-arroow-left-1" viewBox="0 0 32 32">
<path fill="#fefefe" style="fill: var(--color1, #fefefe)" d="M0.551 14.669c-0.735 0.735-0.735 1.927 0 2.662l11.979 11.979c0.735 0.735 1.927 0.735 2.662 0s0.735-1.927 0-2.662l-10.648-10.648 10.648-10.648c0.735-0.735 0.735-1.927 0-2.662s-1.927-0.735-2.662 0l-11.979 11.979zM32 14.118h-30.118v3.765h30.118v-3.765z"></path>
</symbol>
<symbol id="icon-arroow-right" viewBox="0 0 32 32">
<path fill="none" stroke="#d7278b" style="stroke: var(--color2, #d7278b)" stroke-linejoin="miter" stroke-linecap="butt" stroke-miterlimit="4" stroke-width="1.2" d="M31.4 16c0 8.505-6.895 15.4-15.4 15.4s-15.4-6.895-15.4-15.4c0-8.505 6.895-15.4 15.4-15.4s15.4 6.895 15.4 15.4z"></path>
<path fill="none" stroke="#d7278b" style="stroke: var(--color2, #d7278b)" stroke-linejoin="miter" stroke-linecap="butt" stroke-miterlimit="4" stroke-width="1.2" d="M13.032 9.658l6.569 5.895"></path>
<path fill="none" stroke="#d7278b" style="stroke: var(--color2, #d7278b)" stroke-linejoin="miter" stroke-linecap="butt" stroke-miterlimit="4" stroke-width="1.2" d="M19.653 14.793l-6.148 7.074"></path>
</symbol>
<symbol id="icon-arroow-left" viewBox="0 0 32 32">
<path fill="none" stroke="#d7278b" style="stroke: var(--color2, #d7278b)" stroke-linejoin="miter" stroke-linecap="butt" stroke-miterlimit="4" stroke-width="1.2" d="M0.6 16c0-8.505 6.895-15.4 15.4-15.4s15.4 6.895 15.4 15.4c0 8.505-6.895 15.4-15.4 15.4s-15.4-6.895-15.4-15.4z"></path>
<path fill="none" stroke="#d7278b" style="stroke: var(--color2, #d7278b)" stroke-linejoin="miter" stroke-linecap="butt" stroke-miterlimit="4" stroke-width="1.2" d="M18.692 21.94l-6.316-6.316"></path>
<path fill="none" stroke="#d7278b" style="stroke: var(--color2, #d7278b)" stroke-linejoin="miter" stroke-linecap="butt" stroke-miterlimit="4" stroke-width="1.2" d="M12.376 16.292l6.316-6.316"></path>
</symbol>
<symbol id="icon-copyright" viewBox="0 0 32 32">
<path fill="#fefefe" style="fill: var(--color1, #fefefe)" d="M13.611 14.992c0.062-0.411 0.199-0.772 0.373-1.070 0.373-0.697 1.008-1.058 1.867-1.070 0.56 0 1.070 0.249 1.431 0.61 0.348 0.386 0.585 0.921 0.585 1.456h2.24c-0.025-0.585-0.137-1.12-0.373-1.618-0.187-0.473-0.473-0.896-0.846-1.244-1.804-1.668-5.152-1.431-6.683 0.46-1.605 2.078-1.643 5.712-0.012 7.79 1.506 1.854 4.804 2.116 6.596 0.46 0.386-0.311 0.697-0.697 0.946-1.145 0.199-0.448 0.336-0.921 0.348-1.431h-2.215c0 0.261-0.087 0.498-0.199 0.709-0.112 0.236-0.261 0.423-0.423 0.585-0.411 0.324-0.896 0.498-1.419 0.498-0.448-0.012-0.821-0.1-1.108-0.286-0.323-0.181-0.58-0.46-0.734-0.796-0.622-1.12-0.523-2.676-0.373-3.908zM16 3.967c-6.844 0-12.444 5.6-12.444 12.444 0.66 16.514 24.267 16.501 24.889 0 0-6.844-5.6-12.444-12.444-12.444zM16 26.367c-5.488 0-9.956-4.468-9.956-9.956 0.548-13.204 19.364-13.204 19.911 0 0 5.488-4.468 9.956-9.956 9.956z"></path>
</symbol>
<symbol id="icon-twitter" viewBox="0 0 32 32">
<path fill="#fefefe" style="fill: var(--color1, #fefefe)" d="M19.836 5.301c0.646-0.11 1.369-0.147 2.050-0.032 1.212 0.205 2.336 0.768 3.225 1.617 0.579 0.013 1.149-0.102 1.653-0.264 0.487-0.159 0.955-0.372 1.394-0.636l0.011-0.008c0.183-0.122 0.402-0.177 0.621-0.155s0.423 0.118 0.579 0.273c0.156 0.155 0.253 0.359 0.276 0.578s-0.031 0.438-0.152 0.622c-0.263 0.4-0.63 1.114-1.040 1.914l-0.197 0.382c-0.235 0.457-0.476 0.919-0.701 1.316-0.141 0.249-0.292 0.502-0.445 0.72v0.348c0.016 2.081-0.383 4.144-1.174 6.069s-1.956 3.673-3.429 5.143-3.224 2.631-5.151 3.417c-1.927 0.786-3.991 1.179-6.072 1.159-3.015 0.003-5.967-0.866-8.5-2.502-0.181-0.117-0.317-0.292-0.386-0.497s-0.066-0.426 0.008-0.629 0.214-0.374 0.398-0.487c0.184-0.113 0.401-0.159 0.615-0.133 1.75 0.209 3.523-0.073 5.121-0.815-0.78-0.354-1.477-0.867-2.048-1.506s-1.002-1.389-1.266-2.204c-0.050-0.156-0.060-0.322-0.027-0.483s0.106-0.31 0.214-0.434l0.013-0.013c-0.645-0.574-1.161-1.278-1.516-2.065s-0.541-1.64-0.545-2.503v-0.066c-0-0.209 0.069-0.412 0.196-0.579s0.305-0.286 0.507-0.341c-0.43-0.858-0.653-1.805-0.651-2.764-0.001-1.088 0.284-2.157 0.825-3.101 0.077-0.134 0.185-0.247 0.316-0.33s0.279-0.133 0.433-0.145c0.154-0.013 0.309 0.013 0.451 0.073s0.267 0.155 0.365 0.275c2.221 2.736 5.403 4.521 8.896 4.99-0.030-1.143 0.258-2.271 0.832-3.259s1.413-1.797 2.421-2.336c0.51-0.272 1.186-0.489 1.882-0.608h-0.001zM5.515 14.886c0.247 0.694 0.669 1.312 1.226 1.794s1.23 0.81 1.952 0.954c0.208 0.041 0.396 0.151 0.535 0.312s0.22 0.363 0.23 0.575-0.050 0.421-0.172 0.595c-0.122 0.174-0.299 0.301-0.502 0.363-0.345 0.105-0.7 0.178-1.059 0.22 0.39 0.503 0.888 0.913 1.457 1.198s1.195 0.44 1.832 0.452c0.196 0.004 0.387 0.068 0.545 0.184s0.277 0.278 0.34 0.465 0.066 0.387 0.010 0.575c-0.056 0.188-0.169 0.354-0.323 0.476-1.324 1.042-2.863 1.777-4.505 2.152 1.36 0.435 2.779 0.656 4.207 0.654h0.011c1.829 0.019 3.643-0.326 5.336-1.016s3.233-1.71 4.528-3.002c1.295-1.291 2.319-2.828 3.014-4.519s1.044-3.505 1.030-5.334v-0.679c-0-0.231 0.084-0.455 0.236-0.629 0.089-0.1 0.241-0.331 0.457-0.711 0.203-0.358 0.429-0.79 0.664-1.246l0.042-0.084c-0.663 0.149-1.346 0.191-2.023 0.123-0.229-0.025-0.441-0.132-0.597-0.301-0.639-0.692-1.489-1.153-2.418-1.31-0.468-0.066-0.944-0.056-1.41 0.032-0.453 0.071-0.893 0.209-1.305 0.41-0.831 0.444-1.491 1.151-1.877 2.011s-0.475 1.823-0.254 2.739c0.035 0.144 0.035 0.294 0.002 0.438s-0.1 0.279-0.195 0.393c-0.095 0.114-0.214 0.204-0.35 0.264s-0.283 0.087-0.431 0.079c-3.902-0.197-7.59-1.839-10.348-4.606-0.054 0.275-0.080 0.554-0.080 0.834v0.003c-0.001 0.699 0.17 1.388 0.499 2.005s0.806 1.143 1.388 1.531c0.171 0.115 0.3 0.282 0.368 0.477s0.071 0.406 0.008 0.602c-0.062 0.196-0.187 0.367-0.354 0.487s-0.369 0.182-0.575 0.177c-0.383-0.011-0.765-0.056-1.139-0.138z"></path>
</symbol>
<symbol id="icon-youtube" viewBox="0 0 32 32">
<path fill="#fefefe" style="fill: var(--color1, #fefefe)" d="M29.333 16.211c0-0.066 0-0.14-0.003-0.226-0.003-0.241-0.009-0.512-0.015-0.801-0.024-0.83-0.066-1.658-0.131-2.438-0.089-1.074-0.22-1.97-0.399-2.643-0.188-0.702-0.558-1.342-1.071-1.857s-1.153-0.885-1.854-1.075c-0.842-0.226-2.491-0.366-4.813-0.452-1.104-0.042-2.286-0.068-3.467-0.083-0.414-0.006-0.798-0.009-1.143-0.012h-0.875c-0.345 0.003-0.729 0.006-1.143 0.012-1.182 0.015-2.363 0.042-3.467 0.083-2.321 0.089-3.973 0.229-4.813 0.452-0.702 0.189-1.341 0.56-1.855 1.074s-0.883 1.155-1.071 1.857c-0.182 0.673-0.31 1.568-0.399 2.643-0.065 0.78-0.107 1.607-0.131 2.438-0.009 0.289-0.012 0.559-0.015 0.801 0 0.086-0.003 0.161-0.003 0.226v0.167c0 0.065 0 0.14 0.003 0.226 0.003 0.241 0.009 0.512 0.015 0.801 0.024 0.83 0.065 1.658 0.131 2.438 0.089 1.074 0.22 1.97 0.399 2.643 0.381 1.426 1.5 2.551 2.926 2.931 0.839 0.226 2.491 0.366 4.813 0.452 1.104 0.042 2.286 0.068 3.467 0.083 0.414 0.006 0.798 0.009 1.143 0.012h0.875c0.345-0.003 0.729-0.006 1.143-0.012 1.182-0.015 2.363-0.042 3.467-0.083 2.321-0.089 3.973-0.229 4.813-0.452 1.426-0.381 2.545-1.503 2.926-2.931 0.182-0.673 0.31-1.568 0.399-2.643 0.066-0.78 0.107-1.607 0.131-2.438 0.009-0.289 0.012-0.56 0.015-0.801 0-0.086 0.003-0.161 0.003-0.226v-0.167zM27.191 16.365c0 0.063 0 0.131-0.003 0.211-0.003 0.232-0.009 0.488-0.015 0.765-0.021 0.792-0.062 1.583-0.125 2.318-0.080 0.958-0.194 1.744-0.333 2.271-0.184 0.688-0.726 1.232-1.411 1.414-0.625 0.167-2.199 0.301-4.339 0.381-1.083 0.042-2.25 0.068-3.414 0.083-0.408 0.006-0.786 0.009-1.125 0.009h-0.851l-1.125-0.009c-1.164-0.015-2.327-0.042-3.414-0.083-2.14-0.083-3.717-0.214-4.339-0.381-0.685-0.185-1.226-0.726-1.411-1.414-0.14-0.527-0.253-1.312-0.333-2.271-0.063-0.735-0.101-1.527-0.125-2.318-0.009-0.277-0.012-0.536-0.015-0.765 0-0.080-0.003-0.152-0.003-0.211v-0.143c0-0.062 0-0.131 0.003-0.211 0.003-0.232 0.009-0.488 0.015-0.765 0.021-0.792 0.063-1.583 0.125-2.319 0.080-0.958 0.193-1.744 0.333-2.271 0.185-0.688 0.726-1.232 1.411-1.414 0.625-0.167 2.199-0.301 4.339-0.381 1.083-0.042 2.25-0.068 3.414-0.083 0.408-0.006 0.786-0.009 1.125-0.009h0.851l1.125 0.009c1.164 0.015 2.327 0.042 3.414 0.083 2.14 0.083 3.717 0.214 4.339 0.381 0.684 0.185 1.226 0.726 1.411 1.414 0.14 0.527 0.253 1.313 0.333 2.271 0.062 0.735 0.101 1.527 0.125 2.319 0.009 0.277 0.012 0.536 0.015 0.765 0 0.080 0.003 0.152 0.003 0.211v0.143zM13.351 20.282l6.905-4.018-6.905-3.958v7.976z"></path>
</symbol>
<symbol id="icon-telegram" viewBox="0 0 32 32">
<path fill="#fefefe" style="fill: var(--color1, #fefefe)" d="M8.112 18.859l-4.037-1.357c-0.047-0.020-0.156-0.064-0.207-0.089-0.114-0.055-0.269-0.137-0.432-0.253-0.298-0.211-0.786-0.649-0.875-1.36-0.113-0.894 0.551-1.435 0.839-1.632 0.153-0.103 0.314-0.194 0.483-0.269 0.070-0.032 0.14-0.061 0.212-0.088l21.241-8.333c0.108-0.044 0.218-0.084 0.33-0.119 0.199-0.063 0.496-0.142 0.816-0.168 0.298-0.023 0.77-0.010 1.194 0.265 0.494 0.321 0.705 0.853 0.705 1.412 0 0.062-0.006 0.124-0.018 0.185l-3.784 19.079c-0.012 0.058-0.029 0.114-0.051 0.169l-0.001 0.001v0.002l-0.003 0.005-0.004 0.010-0.011 0.028c-0.163 0.36-0.409 0.676-0.716 0.924-0.268 0.215-0.627 0.404-1.079 0.467-0.455 0.061-0.937-0.015-1.435-0.231-0.071-0.032-0.137-0.071-0.198-0.118l-4.146-3.177-3.595 2.24c-0.12 0.080-0.25 0.144-0.386 0.19-0.232 0.078-0.603 0.141-1.010-0.011-0.083-0.028-0.162-0.065-0.236-0.112-0.142-0.089-0.263-0.206-0.368-0.338-0.203-0.259-0.389-0.637-0.565-1.194-0.141-0.452-0.785-2.024-1.424-3.55-0.355-0.848-0.712-1.696-1.072-2.542-0.057-0.008-0.113-0.021-0.168-0.039zM26.065 7.237h-0.002c-0.011 0.005-0.022 0.010-0.033 0.014l-21.25 8.337c-0.011 0.004-0.022 0.009-0.033 0.013l-0.013 0.004c-0.039 0.015-0.077 0.032-0.114 0.051 0.035 0.020 0.072 0.039 0.109 0.055l3.99 1.343c0.071 0.024 0.139 0.057 0.203 0.097l13.19-7.721c0.051-0.031 0.104-0.060 0.157-0.086 0.091-0.047 0.237-0.116 0.403-0.166 0.114-0.036 0.453-0.136 0.819-0.018 0.194 0.061 0.367 0.176 0.499 0.33s0.218 0.343 0.248 0.545c0.047 0.176 0.049 0.362 0.004 0.538-0.089 0.349-0.333 0.621-0.556 0.829-0.19 0.178-2.66 2.56-5.097 4.912l-3.909 3.771 7.456 5.717c0.101 0.042 0.21 0.060 0.319 0.051 0.055-0.007 0.106-0.030 0.149-0.066 0.052-0.044 0.096-0.095 0.131-0.152l0.003-0.001 3.67-18.505c-0.116 0.028-0.229 0.064-0.339 0.109l-0.003 0.001zM15.321 22.976l-1.488-1.14-0.361 2.292 1.849-1.152zM12.467 19.572l6.033-5.822-8.279 4.847 0.044 0.104c0.522 1.234 1.039 2.47 1.549 3.708l0.359-2.286c0.033-0.212 0.136-0.405 0.293-0.551z"></path>
</symbol>
<symbol id="icon-instagram" viewBox="0 0 32 32">
<path fill="#fefefe" style="fill: var(--color1, #fefefe)" d="M22.781 7.989c-0.301 0-0.596 0.089-0.847 0.257s-0.446 0.405-0.561 0.684-0.146 0.585-0.087 0.88c0.059 0.296 0.204 0.567 0.417 0.78s0.485 0.358 0.78 0.417 0.602 0.029 0.88-0.087c0.278-0.115 0.516-0.311 0.684-0.561s0.257-0.545 0.257-0.847c0-0.404-0.161-0.792-0.446-1.078s-0.673-0.446-1.078-0.446zM28.622 11.062c-0.025-1.054-0.222-2.096-0.584-3.086-0.323-0.847-0.825-1.614-1.473-2.248-0.629-0.651-1.397-1.15-2.248-1.46-0.987-0.373-2.031-0.575-3.086-0.597-1.346-0.076-1.778-0.076-5.232-0.076s-3.886 0-5.232 0.076c-1.055 0.022-2.099 0.224-3.086 0.597-0.849 0.313-1.617 0.812-2.248 1.46-0.651 0.629-1.15 1.397-1.46 2.248-0.373 0.987-0.575 2.031-0.597 3.086-0.076 1.346-0.076 1.778-0.076 5.232s0 3.886 0.076 5.232c0.022 1.055 0.224 2.099 0.597 3.086 0.31 0.85 0.809 1.619 1.46 2.248 0.631 0.648 1.399 1.147 2.248 1.46 0.987 0.373 2.031 0.575 3.086 0.597 1.346 0.076 1.778 0.076 5.232 0.076s3.886 0 5.232-0.076c1.055-0.022 2.099-0.224 3.086-0.597 0.85-0.31 1.619-0.809 2.248-1.46 0.651-0.632 1.154-1.399 1.473-2.248 0.362-0.99 0.559-2.032 0.584-3.086 0-1.346 0.076-1.778 0.076-5.232s0-3.886-0.076-5.232zM26.337 21.373c-0.009 0.806-0.155 1.605-0.432 2.362-0.203 0.553-0.528 1.052-0.952 1.46-0.412 0.42-0.91 0.745-1.46 0.952-0.757 0.276-1.556 0.422-2.362 0.432-1.27 0.064-1.74 0.076-5.079 0.076s-3.809 0-5.079-0.076c-0.837 0.016-1.67-0.113-2.463-0.381-0.526-0.218-1.001-0.542-1.397-0.952-0.421-0.408-0.743-0.908-0.94-1.46-0.31-0.768-0.482-1.585-0.508-2.413 0-1.27-0.076-1.74-0.076-5.079s0-3.809 0.076-5.079c0.006-0.824 0.156-1.641 0.444-2.413 0.224-0.536 0.567-1.014 1.003-1.397 0.386-0.437 0.863-0.783 1.397-1.016 0.774-0.279 1.59-0.425 2.413-0.432 1.27 0 1.74-0.076 5.079-0.076s3.81 0 5.079 0.076c0.806 0.009 1.605 0.155 2.362 0.432 0.577 0.214 1.095 0.562 1.511 1.016 0.416 0.39 0.741 0.867 0.952 1.397 0.282 0.773 0.428 1.59 0.432 2.413 0.064 1.27 0.076 1.74 0.076 5.079s-0.013 3.81-0.076 5.079zM16 9.779c-1.288 0.002-2.546 0.387-3.616 1.104s-1.903 1.736-2.394 2.926c-0.491 1.191-0.618 2.5-0.366 3.763s0.874 2.422 1.786 3.332c0.912 0.91 2.072 1.529 3.336 1.779s2.572 0.121 3.762-0.373 2.206-1.328 2.921-2.399c0.715-1.071 1.097-2.33 1.097-3.618 0.002-0.857-0.166-1.706-0.494-2.498s-0.808-1.511-1.415-2.117-1.327-1.085-2.119-1.411c-0.793-0.326-1.642-0.492-2.499-0.489zM16 20.522c-0.836 0-1.654-0.248-2.349-0.713s-1.237-1.125-1.557-1.898c-0.32-0.773-0.404-1.623-0.241-2.443s0.566-1.574 1.157-2.165 1.345-0.994 2.165-1.157c0.82-0.163 1.671-0.079 2.443 0.241s1.433 0.862 1.898 1.557 0.713 1.513 0.713 2.349c0 0.555-0.109 1.105-0.322 1.618s-0.524 0.979-0.917 1.372-0.859 0.704-1.372 0.917c-0.513 0.212-1.063 0.322-1.618 0.322z"></path>
</symbol>
<symbol id="icon-arrow-lefts" viewBox="0 0 36 32">
<path d="M1.586 14.586c-0.781 0.781-0.781 2.047 0 2.828l12.728 12.728c0.781 0.781 2.047 0.781 2.828 0s0.781-2.047 0-2.828l-11.314-11.314 11.314-11.314c0.781-0.781 0.781-2.047 0-2.828s-2.047-0.781-2.828 0l-12.728 12.728zM35 14h-32v4h32v-4z"></path>
</symbol>
<symbol id="icon-arrow-rights" viewBox="0 0 36 32">
<path d="M34.414 17.414c0.781-0.781 0.781-2.047 0-2.828l-12.728-12.728c-0.781-0.781-2.047-0.781-2.828 0s-0.781 2.047 0 2.828l11.314 11.314-11.314 11.314c-0.781 0.781-0.781 2.047 0 2.828s2.047 0.781 2.828 0l12.728-12.728zM1 18h32v-4h-32v4z"></path>
</symbol>
<symbol id="icon-instagram-header" viewBox="0 0 32 32">
<path d="M23.12 7.28c-0.316 0-0.626 0.094-0.889 0.27s-0.468 0.426-0.589 0.718c-0.121 0.292-0.153 0.614-0.091 0.924s0.214 0.595 0.438 0.819c0.224 0.224 0.509 0.376 0.819 0.438s0.632 0.030 0.924-0.091c0.292-0.121 0.542-0.326 0.718-0.589s0.27-0.572 0.27-0.889c0-0.424-0.169-0.831-0.469-1.131s-0.707-0.469-1.131-0.469zM29.253 10.507c-0.026-1.106-0.233-2.201-0.613-3.24-0.339-0.889-0.867-1.694-1.547-2.36-0.66-0.683-1.467-1.208-2.36-1.533-1.036-0.392-2.132-0.604-3.24-0.627-1.413-0.080-1.867-0.080-5.493-0.080s-4.080 0-5.493 0.080c-1.108 0.023-2.204 0.235-3.24 0.627-0.891 0.329-1.697 0.853-2.36 1.533-0.683 0.66-1.208 1.467-1.533 2.36-0.392 1.036-0.604 2.132-0.627 3.24-0.080 1.413-0.080 1.867-0.080 5.493s0 4.080 0.080 5.493c0.023 1.108 0.235 2.204 0.627 3.24 0.326 0.893 0.85 1.7 1.533 2.36 0.663 0.681 1.469 1.204 2.36 1.533 1.036 0.392 2.132 0.604 3.24 0.627 1.413 0.080 1.867 0.080 5.493 0.080s4.080 0 5.493-0.080c1.108-0.023 2.204-0.235 3.24-0.627 0.893-0.326 1.7-0.85 2.36-1.533 0.683-0.663 1.211-1.469 1.547-2.36 0.38-1.039 0.587-2.134 0.613-3.24 0-1.413 0.080-1.867 0.080-5.493s0-4.080-0.080-5.493zM26.853 21.333c-0.010 0.846-0.163 1.685-0.453 2.48-0.213 0.58-0.555 1.105-1 1.533-0.432 0.441-0.956 0.782-1.533 1-0.795 0.29-1.634 0.444-2.48 0.453-1.333 0.067-1.827 0.080-5.333 0.080s-4 0-5.333-0.080c-0.879 0.016-1.754-0.119-2.587-0.4-0.552-0.229-1.052-0.57-1.467-1-0.443-0.428-0.78-0.953-0.987-1.533-0.326-0.806-0.506-1.664-0.533-2.533 0-1.333-0.080-1.827-0.080-5.333s0-4 0.080-5.333c0.006-0.865 0.164-1.723 0.467-2.533 0.235-0.563 0.595-1.064 1.053-1.467 0.405-0.458 0.906-0.823 1.467-1.067 0.813-0.293 1.669-0.447 2.533-0.453 1.333 0 1.827-0.080 5.333-0.080s4 0 5.333 0.080c0.846 0.010 1.685 0.163 2.48 0.453 0.606 0.225 1.15 0.59 1.587 1.067 0.437 0.41 0.778 0.91 1 1.467 0.296 0.812 0.45 1.669 0.453 2.533 0.067 1.333 0.080 1.827 0.080 5.333s-0.013 4-0.080 5.333zM16 9.16c-1.352 0.003-2.673 0.406-3.796 1.159s-1.998 1.822-2.513 3.072-0.649 2.625-0.384 3.951c0.265 1.326 0.918 2.543 1.875 3.499s2.176 1.605 3.502 1.868 2.701 0.127 3.95-0.391c1.249-0.518 2.317-1.395 3.068-2.519s1.152-2.446 1.152-3.799c0.002-0.9-0.174-1.791-0.518-2.623s-0.849-1.587-1.486-2.223c-0.637-0.636-1.393-1.139-2.225-1.481s-1.724-0.517-2.624-0.513zM16 20.44c-0.878 0-1.737-0.26-2.467-0.748s-1.299-1.181-1.635-1.993c-0.336-0.811-0.424-1.704-0.253-2.565s0.594-1.652 1.215-2.273 1.412-1.044 2.273-1.215c0.861-0.171 1.754-0.083 2.565 0.253s1.505 0.905 1.993 1.635 0.748 1.589 0.748 2.467c0 0.583-0.115 1.16-0.338 1.699s-0.55 1.028-0.962 1.44c-0.412 0.412-0.902 0.739-1.44 0.962s-1.116 0.338-1.699 0.338z"></path>
</symbol>
<symbol id="icon-telegram-header" viewBox="0 0 32 32">
<path d="M7.717 18.693l-4.239-1.425c-0.049-0.021-0.164-0.067-0.217-0.093-0.12-0.057-0.283-0.144-0.453-0.265-0.313-0.221-0.825-0.681-0.919-1.428-0.119-0.939 0.579-1.507 0.881-1.713 0.16-0.109 0.33-0.203 0.507-0.283 0.073-0.034 0.147-0.064 0.223-0.092l22.303-8.749c0.114-0.046 0.229-0.088 0.347-0.125 0.209-0.067 0.521-0.149 0.857-0.176 0.313-0.024 0.808-0.011 1.253 0.279 0.519 0.337 0.74 0.896 0.74 1.483 0 0.065-0.006 0.131-0.019 0.195l-3.973 20.033c-0.012 0.061-0.030 0.12-0.053 0.177l-0.001 0.001v0.003l-0.003 0.005-0.004 0.011-0.012 0.029c-0.171 0.378-0.429 0.71-0.752 0.971-0.281 0.225-0.659 0.424-1.133 0.491-0.477 0.064-0.984-0.016-1.507-0.243-0.075-0.033-0.144-0.075-0.208-0.124l-4.353-3.336-3.775 2.352c-0.126 0.084-0.262 0.151-0.405 0.2-0.244 0.081-0.633 0.148-1.060-0.012-0.087-0.029-0.17-0.069-0.248-0.117-0.149-0.093-0.276-0.216-0.387-0.355-0.213-0.272-0.408-0.669-0.593-1.253-0.148-0.475-0.824-2.125-1.495-3.728-0.373-0.891-0.748-1.78-1.125-2.669-0.060-0.008-0.119-0.022-0.176-0.041zM26.568 6.491h-0.003c-0.011 0.005-0.023 0.010-0.035 0.015l-22.312 8.753c-0.011 0.005-0.023 0.009-0.035 0.013l-0.013 0.004c-0.041 0.016-0.081 0.034-0.12 0.053 0.037 0.021 0.075 0.040 0.115 0.057l4.189 1.411c0.075 0.025 0.146 0.059 0.213 0.101l13.849-8.107c0.054-0.033 0.109-0.063 0.165-0.091 0.096-0.049 0.249-0.121 0.423-0.175 0.12-0.037 0.476-0.143 0.86-0.019 0.204 0.064 0.385 0.184 0.524 0.347s0.229 0.361 0.26 0.572c0.050 0.185 0.051 0.38 0.004 0.565-0.093 0.367-0.349 0.652-0.584 0.871-0.2 0.187-2.793 2.688-5.352 5.157l-4.104 3.96 7.829 6.003c0.106 0.044 0.22 0.063 0.335 0.053 0.058-0.008 0.112-0.032 0.156-0.069 0.054-0.046 0.1-0.1 0.137-0.16l0.003-0.001 3.853-19.431c-0.121 0.029-0.24 0.068-0.356 0.115l-0.003 0.001zM15.286 23.016l-1.563-1.197-0.379 2.407 1.941-1.209zM12.29 19.443l6.335-6.113-8.693 5.089 0.047 0.109c0.548 1.295 1.090 2.593 1.627 3.893l0.377-2.4c0.034-0.223 0.143-0.426 0.308-0.579z"></path>
</symbol>
<symbol id="icon-youtube-header" viewBox="0 0 32 32">
<path d="M30 15.913c0-0.069 0-0.147-0.003-0.238-0.003-0.253-0.009-0.537-0.016-0.841-0.025-0.872-0.069-1.741-0.138-2.559-0.094-1.128-0.231-2.069-0.419-2.775-0.198-0.737-0.586-1.409-1.125-1.949s-1.21-0.929-1.947-1.129c-0.884-0.237-2.616-0.384-5.053-0.475-1.159-0.044-2.4-0.072-3.641-0.088-0.434-0.006-0.838-0.009-1.2-0.013h-0.919c-0.362 0.003-0.766 0.006-1.2 0.013-1.241 0.016-2.481 0.044-3.641 0.088-2.438 0.094-4.172 0.241-5.053 0.475-0.737 0.199-1.409 0.588-1.948 1.128s-0.927 1.213-1.124 1.95c-0.191 0.706-0.325 1.647-0.419 2.775-0.069 0.819-0.112 1.688-0.138 2.559-0.009 0.303-0.013 0.587-0.016 0.841 0 0.091-0.003 0.169-0.003 0.238v0.175c0 0.069 0 0.147 0.003 0.237 0.003 0.253 0.009 0.538 0.016 0.841 0.025 0.872 0.069 1.741 0.138 2.559 0.094 1.128 0.231 2.069 0.419 2.775 0.4 1.497 1.575 2.678 3.072 3.078 0.881 0.238 2.616 0.384 5.053 0.475 1.159 0.044 2.4 0.072 3.641 0.088 0.434 0.006 0.838 0.009 1.2 0.012h0.919c0.362-0.003 0.766-0.006 1.2-0.012 1.241-0.016 2.481-0.044 3.641-0.088 2.437-0.094 4.172-0.241 5.053-0.475 1.497-0.4 2.672-1.578 3.072-3.078 0.191-0.706 0.325-1.647 0.419-2.775 0.069-0.819 0.113-1.687 0.138-2.559 0.009-0.303 0.012-0.587 0.016-0.841 0-0.091 0.003-0.169 0.003-0.237v-0.175zM27.75 16.075c0 0.066 0 0.138-0.003 0.222-0.003 0.244-0.009 0.513-0.016 0.803-0.022 0.831-0.066 1.663-0.131 2.434-0.084 1.006-0.203 1.831-0.35 2.384-0.194 0.722-0.763 1.294-1.481 1.484-0.656 0.175-2.309 0.316-4.556 0.4-1.137 0.044-2.362 0.072-3.584 0.088-0.428 0.006-0.825 0.009-1.181 0.009h-0.894l-1.181-0.009c-1.222-0.016-2.444-0.044-3.584-0.088-2.247-0.088-3.903-0.225-4.556-0.4-0.719-0.194-1.287-0.762-1.481-1.484-0.147-0.553-0.266-1.378-0.35-2.384-0.066-0.772-0.106-1.603-0.131-2.434-0.009-0.291-0.013-0.562-0.016-0.803 0-0.084-0.003-0.159-0.003-0.222v-0.15c0-0.066 0-0.137 0.003-0.222 0.003-0.244 0.009-0.513 0.016-0.803 0.022-0.831 0.066-1.662 0.131-2.434 0.084-1.006 0.203-1.831 0.35-2.384 0.194-0.722 0.763-1.294 1.481-1.484 0.656-0.175 2.309-0.316 4.556-0.4 1.137-0.044 2.362-0.072 3.584-0.087 0.428-0.006 0.825-0.009 1.181-0.009h0.894l1.181 0.009c1.222 0.016 2.444 0.044 3.584 0.087 2.247 0.088 3.903 0.225 4.556 0.4 0.719 0.194 1.288 0.763 1.481 1.484 0.147 0.553 0.266 1.378 0.35 2.384 0.066 0.772 0.106 1.603 0.131 2.434 0.009 0.291 0.012 0.563 0.016 0.803 0 0.084 0.003 0.159 0.003 0.222v0.15zM13.219 20.188l7.25-4.219-7.25-4.156v8.375z"></path>
</symbol>
<symbol id="icon-twitter-header" viewBox="0 0 32 32">
<path d="M20.028 4.457c0.679-0.116 1.437-0.155 2.152-0.033 1.273 0.215 2.453 0.806 3.387 1.697 0.608 0.013 1.207-0.107 1.736-0.277 0.512-0.167 1.003-0.391 1.464-0.668l0.012-0.008c0.192-0.128 0.422-0.186 0.652-0.163s0.444 0.124 0.608 0.286 0.266 0.377 0.289 0.607c0.024 0.229-0.033 0.46-0.16 0.653-0.276 0.42-0.661 1.169-1.092 2.009l-0.207 0.401c-0.247 0.48-0.5 0.965-0.736 1.381-0.148 0.261-0.307 0.527-0.467 0.756v0.365c0.016 2.185-0.403 4.351-1.232 6.372s-2.054 3.857-3.601 5.4c-1.547 1.543-3.386 2.763-5.409 3.587s-4.191 1.238-6.375 1.216c-3.166 0.003-6.266-0.909-8.925-2.627-0.19-0.123-0.333-0.307-0.405-0.521s-0.069-0.447 0.008-0.66c0.077-0.213 0.225-0.393 0.418-0.511s0.421-0.167 0.645-0.139c1.837 0.22 3.699-0.077 5.377-0.856-0.819-0.372-1.551-0.911-2.15-1.582s-1.052-1.459-1.33-2.314c-0.053-0.164-0.063-0.338-0.028-0.507s0.112-0.326 0.224-0.456l0.013-0.013c-0.677-0.603-1.219-1.342-1.592-2.168s-0.568-1.722-0.572-2.628v-0.069c-0-0.22 0.072-0.433 0.205-0.607s0.32-0.3 0.532-0.358c-0.452-0.901-0.686-1.895-0.684-2.903-0.001-1.142 0.298-2.265 0.867-3.256 0.081-0.141 0.195-0.26 0.332-0.346s0.293-0.139 0.455-0.152c0.162-0.013 0.324 0.013 0.473 0.077s0.281 0.163 0.383 0.288c2.332 2.873 5.674 4.748 9.341 5.24-0.032-1.2 0.271-2.385 0.874-3.422s1.483-1.887 2.542-2.452c0.536-0.285 1.245-0.513 1.976-0.639h-0.001zM4.991 14.521c0.259 0.729 0.703 1.378 1.288 1.883s1.291 0.851 2.050 1.002c0.219 0.044 0.416 0.159 0.562 0.328s0.231 0.381 0.242 0.604c0.011 0.223-0.053 0.442-0.181 0.625s-0.314 0.317-0.527 0.381c-0.363 0.111-0.735 0.187-1.112 0.231 0.41 0.528 0.932 0.958 1.53 1.258s1.255 0.462 1.923 0.475c0.206 0.004 0.406 0.071 0.572 0.193s0.291 0.292 0.357 0.488c0.066 0.195 0.069 0.407 0.010 0.604s-0.178 0.372-0.34 0.5c-1.39 1.094-3.006 1.866-4.731 2.26 1.428 0.457 2.918 0.689 4.417 0.687h0.012c1.92 0.020 3.825-0.342 5.603-1.067s3.394-1.796 4.754-3.152c1.36-1.356 2.435-2.969 3.164-4.746s1.097-3.68 1.081-5.6v-0.713c-0-0.243 0.088-0.477 0.248-0.66 0.093-0.105 0.253-0.348 0.48-0.747 0.213-0.376 0.451-0.829 0.697-1.308l0.044-0.088c-0.696 0.157-1.414 0.2-2.124 0.129-0.24-0.026-0.463-0.138-0.627-0.316-0.671-0.727-1.563-1.211-2.539-1.376-0.492-0.070-0.992-0.058-1.48 0.033-0.476 0.074-0.938 0.219-1.371 0.431-0.872 0.466-1.565 1.209-1.97 2.111s-0.499 1.914-0.267 2.875c0.037 0.151 0.037 0.309 0.002 0.46s-0.105 0.293-0.204 0.413c-0.099 0.12-0.225 0.215-0.368 0.277s-0.297 0.091-0.453 0.083c-4.097-0.207-7.97-1.931-10.865-4.836-0.056 0.289-0.084 0.582-0.084 0.876v0.003c-0.002 0.734 0.179 1.458 0.524 2.106s0.846 1.2 1.457 1.608c0.179 0.121 0.315 0.296 0.386 0.5s0.074 0.426 0.009 0.632-0.196 0.385-0.372 0.511c-0.176 0.126-0.388 0.191-0.604 0.186-0.402-0.011-0.803-0.059-1.196-0.145z"></path>
</symbol>
</defs>
</svg>
